<?xml version="1.0"?>
<!-- Generated by SVGo and Plotinum VG -->
<svg width="432pt" height="432pt" viewBox="0 0 432 432"
	xmlns="http://www.w3.org/2000/svg"
	xmlns:xlink="http://www.w3.org/1999/xlink">
<g transform="scale(1, -1) translate(0, -432)">
<path d="M0,0L432,0L432,432L0,432Z" style="fill:#FFFFFF" />
<text x="163.85" y="-422.61" transform="scale(1, -1)"
	style="font-family:Liberation Serif;font-variant:normal;font-weight:normal;font-style:normal;font-size:12px">Latencies distribution</text>
<text x="204.08" y="-3.9023" transform="scale(1, -1)"
	style="font-family:Liberation Serif;font-variant:normal;font-weight:normal;font-style:normal;font-size:12px">Latencies (ms)</text>
<text x="65.501" y="-16.541" transform="scale(1, -1)"
	style="font-family:Liberation Serif;font-variant:normal;font-weight:normal;font-style:normal;font-size:10px">100</text>
<text x="150.77" y="-16.541" transform="scale(1, -1)"
	style="font-family:Liberation Serif;font-variant:normal;font-weight:normal;font-style:normal;font-size:10px">400</text>
<text x="236.05" y="-16.541" transform="scale(1, -1)"
	style="font-family:Liberation Serif;font-variant:normal;font-weight:normal;font-style:normal;font-size:10px">700</text>
<text x="318.82" y="-16.541" transform="scale(1, -1)"
	style="font-family:Liberation Serif;font-variant:normal;font-weight:normal;font-style:normal;font-size:10px">1000</text>
<text x="404.09" y="-16.541" transform="scale(1, -1)"
	style="font-family:Liberation Serif;font-variant:normal;font-weight:normal;font-style:normal;font-size:10px">1300</text>
<path d="M73.001,24.363L73.001,32.363" style="fill:none;stroke:#000000;stroke-width:0.5" />
<path d="M158.27,24.363L158.27,32.363" style="fill:none;stroke:#000000;stroke-width:0.5" />
<path d="M243.55,24.363L243.55,32.363" style="fill:none;stroke:#000000;stroke-width:0.5" />
<path d="M328.82,24.363L328.82,32.363" style="fill:none;stroke:#000000;stroke-width:0.5" />
<path d="M414.09,24.363L414.09,32.363" style="fill:none;stroke:#000000;stroke-width:0.5" />
<path d="M101.43,28.363L101.43,32.363" style="fill:none;stroke:#000000;stroke-width:0.5" />
<path d="M129.85,28.363L129.85,32.363" style="fill:none;stroke:#000000;stroke-width:0.5" />
<path d="M186.7,28.363L186.7,32.363" style="fill:none;stroke:#000000;stroke-width:0.5" />
<path d="M215.12,28.363L215.12,32.363" style="fill:none;stroke:#000000;stroke-width:0.5" />
<path d="M271.97,28.363L271.97,32.363" style="fill:none;stroke:#000000;stroke-width:0.5" />
<path d="M300.4,28.363L300.4,32.363" style="fill:none;stroke:#000000;stroke-width:0.5" />
<path d="M357.24,28.363L357.24,32.363" style="fill:none;stroke:#000000;stroke-width:0.5" />
<path d="M385.67,28.363L385.67,32.363" style="fill:none;stroke:#000000;stroke-width:0.5" />
<path d="M47.135,32.363L432,32.363" style="fill:none;stroke:#000000;stroke-width:0.5" />
<g transform="rotate(90)">
<text x="182.14" y="9.3867" transform="scale(1, -1)"
	style="font-family:Liberation Serif;font-variant:normal;font-weight:normal;font-style:normal;font-size:12px">Number of requests</text>
</g>
<text x="25.885" y="-37.924" transform="scale(1, -1)"
	style="font-family:Liberation Serif;font-variant:normal;font-weight:normal;font-style:normal;font-size:10px">0</text>
<text x="20.885" y="-99.72" transform="scale(1, -1)"
	style="font-family:Liberation Serif;font-variant:normal;font-weight:normal;font-style:normal;font-size:10px">40</text>
<text x="20.885" y="-161.52" transform="scale(1, -1)"
	style="font-family:Liberation Serif;font-variant:normal;font-weight:normal;font-style:normal;font-size:10px">80</text>
<text x="15.885" y="-223.31" transform="scale(1, -1)"
	style="font-family:Liberation Serif;font-variant:normal;font-weight:normal;font-style:normal;font-size:10px">120</text>
<text x="15.885" y="-285.11" transform="scale(1, -1)"
	style="font-family:Liberation Serif;font-variant:normal;font-weight:normal;font-style:normal;font-size:10px">160</text>
<text x="15.885" y="-346.91" transform="scale(1, -1)"
	style="font-family:Liberation Serif;font-variant:normal;font-weight:normal;font-style:normal;font-size:10px">200</text>
<text x="15.885" y="-408.7" transform="scale(1, -1)"
	style="font-family:Liberation Serif;font-variant:normal;font-weight:normal;font-style:normal;font-size:10px">240</text>
<path d="M33.385,40.209L41.385,40.209" style="fill:none;stroke:#000000;stroke-width:0.5" />
<path d="M33.385,102.01L41.385,102.01" style="fill:none;stroke:#000000;stroke-width:0.5" />
<path d="M33.385,163.8L41.385,163.8" style="fill:none;stroke:#000000;stroke-width:0.5" />
<path d="M33.385,225.6L41.385,225.6" style="fill:none;stroke:#000000;stroke-width:0.5" />
<path d="M33.385,287.39L41.385,287.39" style="fill:none;stroke:#000000;stroke-width:0.5" />
<path d="M33.385,349.19L41.385,349.19" style="fill:none;stroke:#000000;stroke-width:0.5" />
<path d="M33.385,410.99L41.385,410.99" style="fill:none;stroke:#000000;stroke-width:0.5" />
<path d="M37.385,55.658L41.385,55.658" style="fill:none;stroke:#000000;stroke-width:0.5" />
<path d="M37.385,71.107L41.385,71.107" style="fill:none;stroke:#000000;stroke-width:0.5" />
<path d="M37.385,86.556L41.385,86.556" style="fill:none;stroke:#000000;stroke-width:0.5" />
<path d="M37.385,117.45L41.385,117.45" style="fill:none;stroke:#000000;stroke-width:0.5" />
<path d="M37.385,132.9L41.385,132.9" style="fill:none;stroke:#000000;stroke-width:0.5" />
<path d="M37.385,148.35L41.385,148.35" style="fill:none;stroke:#000000;stroke-width:0.5" />
<path d="M37.385,179.25L41.385,179.25" style="fill:none;stroke:#000000;stroke-width:0.5" />
<path d="M37.385,194.7L41.385,194.7" style="fill:none;stroke:#000000;stroke-width:0.5" />
<path d="M37.385,210.15L41.385,210.15" style="fill:none;stroke:#000000;stroke-width:0.5" />
<path d="M37.385,241.05L41.385,241.05" style="fill:none;stroke:#000000;stroke-width:0.5" />
<path d="M37.385,256.5L41.385,256.5" style="fill:none;stroke:#000000;stroke-width:0.5" />
<path d="M37.385,271.94L41.385,271.94" style="fill:none;stroke:#000000;stroke-width:0.5" />
<path d="M37.385,302.84L41.385,302.84" style="fill:none;stroke:#000000;stroke-width:0.5" />
<path d="M37.385,318.29L41.385,318.29" style="fill:none;stroke:#000000;stroke-width:0.5" />
<path d="M37.385,333.74L41.385,333.74" style="fill:none;stroke:#000000;stroke-width:0.5" />
<path d="M37.385,364.64L41.385,364.64" style="fill:none;stroke:#000000;stroke-width:0.5" />
<path d="M37.385,380.09L41.385,380.09" style="fill:none;stroke:#000000;stroke-width:0.5" />
<path d="M37.385,395.54L41.385,395.54" style="fill:none;stroke:#000000;stroke-width:0.5" />
<path d="M41.385,40.209L41.385,418.71" style="fill:none;stroke:#000000;stroke-width:0.5" />
<path d="M47.135,40.209L76.74,40.209L76.74,418.71L47.135,418.71Z" style="fill:#AFEEEE" />
<path d="M47.135,40.209L76.74,40.209L76.74,418.71L47.135,418.71L47.135,40.209" style="fill:none;stroke:#000000" />
<path d="M76.74,40.209L106.34,40.209L106.34,55.658L76.74,55.658Z" style="fill:#AFEEEE" />
<path d="M76.74,40.209L106.34,40.209L106.34,55.658L76.74,55.658L76.74,40.209" style="fill:none;stroke:#000000" />
<path d="M106.34,40.209L135.95,40.209L135.95,63.383L106.34,63.383Z" style="fill:#AFEEEE" />
<path d="M106.34,40.209L135.95,40.209L135.95,63.383L106.34,63.383L106.34,40.209" style="fill:none;stroke:#000000" />
<path d="M135.95,40.209L165.55,40.209L165.55,44.844L135.95,44.844Z" style="fill:#AFEEEE" />
<path d="M135.95,40.209L165.55,40.209L165.55,44.844L135.95,44.844L135.95,40.209" style="fill:none;stroke:#000000" />
<path d="M165.55,40.209L195.16,40.209L195.16,43.299L165.55,43.299Z" style="fill:#AFEEEE" />
<path d="M165.55,40.209L195.16,40.209L195.16,43.299L165.55,43.299L165.55,40.209" style="fill:none;stroke:#000000" />
<path d="M195.16,40.209L224.76,40.209L224.76,47.934L195.16,47.934Z" style="fill:#AFEEEE" />
<path d="M195.16,40.209L224.76,40.209L224.76,47.934L195.16,47.934L195.16,40.209" style="fill:none;stroke:#000000" />
<path d="M224.76,40.209L254.37,40.209L254.37,46.389L224.76,46.389Z" style="fill:#AFEEEE" />
<path d="M224.76,40.209L254.37,40.209L254.37,46.389L224.76,46.389L224.76,40.209" style="fill:none;stroke:#000000" />
<path d="M254.37,40.209L283.97,40.209L283.97,47.934L254.37,47.934Z" style="fill:#AFEEEE" />
<path d="M254.37,40.209L283.97,40.209L283.97,47.934L254.37,47.934L254.37,40.209" style="fill:none;stroke:#000000" />
<path d="M283.97,40.209L313.58,40.209L313.58,43.299L283.97,43.299Z" style="fill:#AFEEEE" />
<path d="M283.97,40.209L313.58,40.209L313.58,43.299L283.97,43.299L283.97,40.209" style="fill:none;stroke:#000000" />
<path d="M313.58,40.209L343.18,40.209L343.18,41.754L313.58,41.754Z" style="fill:#AFEEEE" />
<path d="M313.58,40.209L343.18,40.209L343.18,41.754L313.58,41.754L313.58,40.209" style="fill:none;stroke:#000000" />
<path d="M343.18,40.209L372.79,40.209L372.79,40.209L343.18,40.209Z" style="fill:#AFEEEE" />
<path d="M343.18,40.209L372.79,40.209L372.79,40.209L343.18,40.209L343.18,40.209" style="fill:none;stroke:#000000" />
<path d="M372.79,40.209L402.39,40.209L402.39,40.209L372.79,40.209Z" style="fill:#AFEEEE" />
<path d="M372.79,40.209L402.39,40.209L402.39,40.209L372.79,40.209L372.79,40.209" style="fill:none;stroke:#000000" />
<path d="M402.39,40.209L432,40.209L432,41.754L402.39,41.754Z" style="fill:#AFEEEE" />
<path d="M402.39,40.209L432,40.209L432,41.754L402.39,41.754L402.39,40.209" style="fill:none;stroke:#000000" />
</g>
</svg>
